<svg width="32" height="32" viewBox="0 0 100 100" fill="none" xmlns="http://www.w3.org/2000/svg">
  <path fill-rule="evenodd" clip-rule="evenodd" d="M44.5941 16.1512C43.1281 16.3277 42.0795 16.5298 40.5508 16.9303C38.5908 17.4439 36.3397 18.3891 36.4916 18.6347C36.5288 18.695 36.505 18.7086 36.4364 18.6663C36.3702 18.6253 35.9807 18.7679 35.5708 18.9833C34.8826 19.3449 34.8007 19.3647 34.4962 19.2425C33.2374 18.7373 32.5828 18.5871 31.8612 18.6381C30.3233 18.7466 29.1747 19.4877 28.5371 20.7827C28.2215 21.4236 28.1933 21.5629 28.1933 22.4788C28.1933 23.5629 28.3807 24.1313 29.068 25.1302L29.381 25.5851L29.0224 26.4098C28.1374 28.4449 27.4447 30.9995 27.0973 33.5091L26.8836 35.0529L25.9579 36.6006C21.7636 43.6131 19.1302 51.1237 17.9277 59.5032C16.7737 67.5452 17.8051 74.3376 20.8809 78.9529C21.2126 79.4506 21.9573 80.339 22.5357 80.927C23.7971 82.2094 24.2813 82.4664 25.9778 82.754C27.4705 83.0072 27.5842 83.0695 26.4294 83.0013C25.8577 82.9677 25.3368 82.8719 25.067 82.751C24.8267 82.6433 24.5129 82.5193 24.3695 82.4754C24.1001 82.3928 23.3727 81.9487 23.1293 81.7182C23.0531 81.646 22.9234 81.587 22.8411 81.587C22.7588 81.587 22.6914 81.5098 22.6914 81.4153C22.6914 81.2641 22.5829 81.2523 21.7744 81.3152C19.6802 81.4781 16.8773 81.969 16.2812 82.2772C15.9088 82.4698 15.9067 82.5901 16.2725 82.7762C17.711 83.5079 23.8119 83.9953 31.552 83.9966C35.8021 83.9975 37.2132 83.9126 40.2974 83.4705C43.3359 83.035 44.6899 82.9493 48.513 82.9503C52.1216 82.9513 53.2568 83.0204 56.1218 83.4138C59.5306 83.8819 60.644 83.9432 65.7632 83.9441C75.4488 83.9458 84.2217 83.2536 83.973 82.5073C83.8254 82.0647 79.749 81.4902 74.8162 81.2168L73.5466 81.1463L73.1394 81.5895C72.6679 82.1027 72.1038 82.4831 71.489 82.7027C70.9591 82.8918 69.5358 83.0645 69.3526 82.9619C69.2792 82.9209 69.6645 82.8311 70.209 82.7623C71.6886 82.5754 72.2088 82.3425 73.0175 81.5047C75.1271 79.3196 76.8696 74.9698 77.6233 70.0069C77.8279 68.66 77.8616 68.0296 77.8593 65.6054C77.8528 59.019 76.5322 52.3997 73.866 45.589C73.0267 43.445 71.0897 39.5762 69.7835 37.435C69.1574 36.4087 68.5436 35.3997 68.4195 35.193C68.2955 34.9861 68.1629 34.5525 68.125 34.2295C67.7866 31.3493 67.1173 28.7345 66.1415 26.4803C65.9334 25.9997 65.7632 25.5415 65.7632 25.4622C65.7632 25.3829 65.903 25.0974 66.0741 24.8278C66.9152 23.5014 67.034 21.9354 66.3924 20.6321C66.0329 19.9018 65.4337 19.344 64.4594 18.8325C63.5517 18.3559 62.0075 18.4532 60.5696 19.0777L60.0395 19.3079L58.4212 18.508C56.7448 17.6793 55.2841 17.1251 54.1228 16.8772C53.7525 16.798 52.8836 16.6127 52.1919 16.4651C51.5003 16.3175 50.4864 16.1497 49.9388 16.092C48.5738 15.9484 46.0462 15.9764 44.5941 16.1512Z" fill="#1a1a1a"/>
</svg>
